<svg width="620" height="430" version="1.1" viewBox="0 0 164.04 113.77" xmlns="http://www.w3.org/2000/svg"><g transform="translate(52.917 -150.81)"><g fill-rule="evenodd"><path x="-52.916668" y="150.8125" width="164.04167" height="113.77084" rx="7.9375" d="m-44.979 150.81h148.17c4.3974 0 7.9375 3.5401 7.9375 7.9375v97.896c0 4.3974-3.5401 7.9375-7.9375 7.9375h-148.17c-4.3974 0-7.9375-3.5401-7.9375-7.9375v-97.896c0-4.3974 3.5401-7.9375 7.9375-7.9375z" fill="#fff"/><path d="m-15.61 210.08v1.8521" fill="#c12b2a" stroke="#c12b2a" stroke-linecap="round" stroke-linejoin="round" stroke-width=".52917"/><path d="m-23.283 210.08v1.8521" fill="#424242" stroke="#424242" stroke-linecap="round" stroke-linejoin="round" stroke-width=".52917"/><g stroke-linecap="round" stroke-linejoin="round"><rect x="-7.6233" y="177.27" width="26.144" height="10.446" rx="1.1956" fill="#e5db3e" stroke="#e5db3e" stroke-width=".29213"/><g stroke-width=".26458"><rect x="26.458" y="246.06" width="21.167" height="10.583" rx="1.3229" fill="#49cee2" stroke="#49cee2"/><rect x="26.458" y="227.54" width="21.167" height="10.583" rx="1.3229" fill="#e0813b" stroke="#e0813b"/><rect x="-2.6458" y="227.54" width="21.167" height="10.583" rx="1.3229" fill="#5ccb83" stroke="#5ccb83"/><rect x="-31.75" y="227.54" width="21.167" height="10.583" rx="1.3229" fill="#cba75c" stroke="#cba75c"/></g><text x="5.4805336" y="181.33398" fill="#ffffff" font-family="'Noto Mono'" font-size="3.175px" stroke="#ffffff" stroke-width=".18521" text-align="center" text-anchor="middle" xml:space="preserve"><tspan x="5.4805336" y="181.33398">Analog</tspan><tspan x="5.4805336" y="185.30273">Comparator</tspan></text><rect x="-39.695" y="158.79" width="26.318" height="10.553" rx="1.3229" fill="#e5db3e" stroke="#e5db3e" stroke-width=".29461"/><text x="-26.503717" y="162.94382" fill="#ffffff" font-family="'Noto Mono'" font-size="3.175px" stroke="#ffffff" stroke-width=".18521" text-align="center" text-anchor="middle" xml:space="preserve"><tspan x="-26.503717" y="162.94382">A ➞ D</tspan><tspan x="-26.503717" y="167.42842">Converter</tspan></text><rect x="-39.397" y="177.41" width="23.385" height="10.332" rx="1.4814" fill="#888" stroke="#888" stroke-width=".27478"/></g></g><g fill="#ffffff" fill-rule="evenodd" font-family="'Noto Mono'" stroke="#ffffff" stroke-linecap="round" stroke-linejoin="round" text-anchor="middle"><text x="-27.753695" y="181.41469" font-size="3.175px" stroke-width=".18521" text-align="center" xml:space="preserve"><tspan x="-27.753695" y="181.41469">Internal</tspan><tspan x="-27.753695" y="185.38344">Bandgap</tspan></text><text x="37.163754" y="234.24992" font-size="3.9688px" stroke-width=".26458" text-align="center" xml:space="preserve"><tspan x="37.163754" y="234.24992" fill="#ffffff" stroke="#ffffff" stroke-width=".26458">TWI</tspan></text><text x="7.912694" y="232.03958" font-size="3.175px" stroke-width=".18521" text-align="center" xml:space="preserve"><tspan x="7.912694" y="232.03958">Debug</tspan><tspan x="7.912694" y="236.00833">Wire</tspan></text><text x="-21.191473" y="232.03958" font-size="3.175px" stroke-width=".18521" text-align="center" xml:space="preserve"><tspan x="-21.191473" y="232.03958">Program</tspan><tspan x="-21.191473" y="236.00833">Logic</tspan></text></g><g transform="translate(-4.3196e-6 -87.313)" fill-rule="evenodd" stroke-linecap="round" stroke-linejoin="round" stroke-width=".26458"><rect x="60.854" y="246.06" width="21.167" height="10.583" rx="1.3229" fill="#449058" stroke="#449058"/><text x="71.559593" y="252.77077" fill="#ffffff" font-family="'Noto Mono'" font-size="3.9688px" stroke="#ffffff" text-align="center" text-anchor="middle" xml:space="preserve"><tspan x="71.559593" y="252.77077" fill="#ffffff" stroke="#ffffff" stroke-width=".26458">EEPROM</tspan></text></g><g stroke="#e0813b" stroke-linecap="round" stroke-linejoin="round" stroke-width=".52917"><path d="m37.042 239.71v4.7625" fill="#fff" fill-rule="evenodd"/><path d="m35.983 240.77 1.0583-1.0583 1.0583 1.0583" fill="none"/><path d="m35.983 243.42 1.0583 1.0583 1.0583-1.0583" fill="none"/></g><g fill-rule="evenodd" stroke-linecap="round" stroke-linejoin="round"><rect x="26.458" y="211.67" width="21.167" height="10.583" rx="1.3229" fill="#49cee2" stroke="#49cee2" stroke-width=".26458"/><rect x="26.458" y="193.15" width="21.167" height="10.583" rx="1.3229" fill="#da4661" stroke="#da4661" stroke-width=".26458"/><rect x="-7.7739" y="190.51" width="26.286" height="13.034" rx="1.6429" fill="#9480d9" stroke="#9480d9" stroke-width=".32722"/><path d="m37.042 205.32v4.7625" fill="#fff" stroke="#da4661" stroke-width=".52917"/></g><g stroke-linecap="round" stroke-linejoin="round" stroke-width=".52917"><path d="m35.983 206.38 1.0583-1.0583 1.0583 1.0583" fill="none" stroke="#da4661"/><path d="m35.983 209.02 1.0583 1.0583 1.0583-1.0583" fill="none" stroke="#da4661"/><path d="m55.563 219.6h-5.8208" fill="#fff" fill-rule="evenodd" stroke="#93539a"/></g><g fill="none" stroke-linecap="round" stroke-linejoin="round" stroke-width=".52917"><path d="m54.504 218.55 1.0583 1.0583-1.0583 1.0583" stroke="#93539a"/><path d="m50.8 218.55-1.0583 1.0583 1.0583 1.0583" stroke="#93539a"/><path d="m21.167 210.61-1.0583 1.0583 1.0583 1.0583" stroke="#9480d9"/></g><g stroke="#93539a" stroke-linecap="round" stroke-linejoin="round" stroke-width=".52917"><path d="m55.563 179.92h-5.8208" fill="#fff" fill-rule="evenodd"/><path d="m54.504 178.86 1.0583 1.0583-1.0583 1.0583" fill="none"/><path d="m50.8 178.86-1.0583 1.0583 1.0583 1.0583" fill="none"/></g><path d="m50.8 184.15-1.0583 1.0583 1.0583 1.0583" fill="none" stroke="#ce5fb3" stroke-linecap="round" stroke-linejoin="round" stroke-width=".52917"/><g fill-rule="evenodd" stroke-linecap="round" stroke-linejoin="round"><text x="37.125965" y="199.85506" fill="#ffffff" font-family="'Noto Mono'" font-size="3.9688px" stroke="#ffffff" stroke-width=".26458" text-align="center" text-anchor="middle" xml:space="preserve"><tspan x="37.125965" y="199.85506" fill="#ffffff" stroke="#ffffff" stroke-width=".26458">SPI</tspan></text><rect x="26.458" y="177.27" width="21.167" height="10.583" rx="1.3229" fill="#49cee2" stroke="#49cee2" stroke-width=".26458"/><rect x="-7.5802" y="206.6" width="26.101" height="15.65" rx="1.3229" fill="#775ccb" stroke="#775ccb" stroke-width=".35728"/><rect x="-39.714" y="211.82" width="28.978" height="10.233" rx="1.4688" fill="#cb5d5c" stroke="#cb5d5c" stroke-width=".30441"/><rect x="26.458" y="158.75" width="21.167" height="10.583" rx="1.3229" fill="#b3bb47" stroke="#b3bb47" stroke-width=".26458"/></g><g stroke="#b3bb47" stroke-linecap="round" stroke-linejoin="round" stroke-width=".52917"><path d="m37.042 170.92v4.7625" fill="#fff" fill-rule="evenodd"/><path d="m35.983 171.98 1.0583-1.0583 1.0583 1.0583" fill="none"/><path d="m35.983 174.63 1.0583 1.0583 1.0583-1.0583" fill="none"/></g><g fill="none" stroke-linecap="round" stroke-linejoin="round" stroke-width=".52917"><path d="m-42.333 162.98 1.0583 1.0583-1.0583 1.0583" stroke="#e5db3e"/><path d="m23.813 252.94 1.0583 1.0583-1.0583 1.0583" stroke="#e5db3e"/><path d="m23.813 250.3 1.0583 1.0583-1.0583 1.0583" stroke="#cb5d5c"/><path d="m23.813 247.65 1.0583 1.0583-1.0583 1.0583" stroke="#5ccb83"/><path d="m6.8792 240.77 1.0583-1.0583 1.0583 1.0583" stroke="#5ccb83"/><path d="m-38.1 224.9 1.0583-1.0583 1.0583 1.0583" stroke="#cb5d5c"/><path d="m-9.525 182.56h-4.7625" stroke="#888"/><path d="m-10.583 181.5 1.0583 1.0583-1.0583 1.0583" stroke="#888"/></g><g fill="none" stroke="#9480d9" stroke-linecap="round" stroke-linejoin="round" stroke-width=".52917"><path d="m-9.525 197.11h-4.7625"/><path d="m-13.229 196.06-1.0583 1.0583 1.0583 1.0583"/></g><g transform="translate(5.2917 35.719)" fill="none" stroke="#5ccb83" stroke-linecap="round" stroke-linejoin="round" stroke-width=".52917"><path d="m-9.525 197.11h-4.7625"/><path d="m-13.229 196.06-1.0583 1.0583 1.0583 1.0583"/></g><g fill="none" stroke="#888" stroke-linecap="round" stroke-linejoin="round" stroke-width=".52917"><path d="m-27.781 175.68v-4.7625"/><path d="m-26.723 171.98-1.0583-1.0583-1.0583 1.0583"/></g><g stroke-linecap="round" stroke-linejoin="round" stroke-width=".52917"><g transform="matrix(1 0 0 -1 -6.6146 381)" fill="none" stroke="#9480d9"><path d="m-27.781 175.68v-4.7625"/><path d="m-26.723 171.98-1.0583-1.0583-1.0583 1.0583"/></g><g transform="rotate(90 25.135 170.66)" stroke="#e5db3e"><path d="m37.042 170.92v4.7625" fill="#fff" fill-rule="evenodd"/><path d="m35.983 171.98 1.0583-1.0583 1.0583 1.0583" fill="none"/><path d="m35.983 174.63 1.0583 1.0583 1.0583-1.0583" fill="none"/></g><g transform="rotate(90 7.9375 187.85)" stroke="#775ccb"><path d="m37.042 170.92v4.7625" fill="#fff" fill-rule="evenodd"/><path d="m35.983 171.98 1.0583-1.0583 1.0583 1.0583" fill="none"/><path d="m35.983 174.63 1.0583 1.0583 1.0583-1.0583" fill="none"/></g></g><g fill-rule="evenodd" stroke-linecap="round" stroke-linejoin="round"><path d="m87.312 214.58 2.1167-1e-5v2.1167l-2.1167 1e-5 -1.0583-1.0583z" fill="#93539a" stroke="#93539a" stroke-width=".52917"/><path d="m87.312 198.7 2.1167-1e-5v2.1167l-2.1167 1e-5 -1.0583-1.0583z" fill="#ce5fb3" stroke="#ce5fb3" stroke-width=".52917"/><text x="36.950588" y="182.51906" fill="#ffffff" font-family="'Noto Mono'" font-size="3.9688px" stroke="#ffffff" stroke-width=".26458" text-align="center" text-anchor="middle" style="line-height:0" xml:space="preserve"><tspan x="36.950588" y="182.51906" style="line-height:3.70417px">Port D</tspan><tspan x="36.950588" y="185.41846" font-size="2.1167px" style="line-height:3.175px">0 🠖 7</tspan></text><rect x="58.208" y="209.02" width="26.458" height="13.229" rx="1.3229" fill="#93539a" stroke="#93539a" stroke-width=".33073"/><text x="71.461731" y="214.64323" fill="#ffffff" font-family="'Noto Mono'" font-size="3.9688px" stroke="#ffffff" stroke-width=".18521" text-align="center" text-anchor="middle" xml:space="preserve"><tspan x="71.461731" y="214.64323">Decider 2</tspan><tspan x="71.461731" y="219.60417">8-Bit</tspan></text><text x="88.177994" y="216.10794" fill="#ffffff" font-family="'Noto Mono'" font-size="1.3229px" stroke="#ffffff" stroke-width=".052917" text-align="center" text-anchor="middle" xml:space="preserve"><tspan x="88.177994" y="216.10794" fill="#ffffff" font-size="1.3229px" stroke="#ffffff" stroke-width=".052917">BUS</tspan></text></g><g transform="rotate(180 67.469 207.7)" fill-rule="evenodd" stroke-linecap="round" stroke-linejoin="round"><path d="m62.442 243.42-1e-5 -2.1167h2.1167l1e-5 2.1167-1.0583 1.0583z" fill="#449058" stroke="#449058" stroke-width=".52917"/><text transform="rotate(-90)" x="-242.55119" y="63.972523" fill="#ffffff" font-family="'Noto Mono'" font-size="1.3229px" stroke="#ffffff" stroke-width=".052917" text-align="center" text-anchor="middle" xml:space="preserve"><tspan x="-242.55119" y="63.972523" fill="#ffffff" font-size="1.3229px" stroke="#ffffff" stroke-width=".052917">BUS</tspan></text></g><g fill-rule="evenodd" stroke-linecap="round" stroke-linejoin="round"><text x="88.177994" y="200.23294" fill="#ffffff" font-family="'Noto Mono'" font-size="1.3229px" stroke="#ffffff" stroke-width=".052917" text-align="center" text-anchor="middle" xml:space="preserve"><tspan x="88.177994" y="200.23294" fill="#ffffff" font-size="1.3229px" stroke="#ffffff" stroke-width=".052917">BUS</tspan></text><rect x="58.208" y="177.27" width="26.458" height="13.229" rx="1.3229" fill="#93539a" stroke="#93539a" stroke-width=".33073"/><text x="71.461731" y="182.89322" fill="#ffffff" font-family="'Noto Mono'" font-size="3.9688px" stroke="#ffffff" stroke-width=".18521" text-align="center" text-anchor="middle" xml:space="preserve"><tspan x="71.461731" y="182.89322">Decider 0</tspan><tspan x="71.461731" y="187.85416">8-Bit</tspan></text><rect x="58.208" y="193.15" width="26.458" height="13.229" rx="1.3229" fill="#ce5fb3" stroke="#ce5fb3" stroke-width=".33073"/><text x="71.763069" y="198.76823" fill="#ffffff" font-family="'Noto Mono'" font-size="3.9688px" stroke="#ffffff" stroke-width=".18521" text-align="center" text-anchor="middle" xml:space="preserve"><tspan x="71.763069" y="198.76823">Decider 1</tspan><tspan x="71.763069" y="203.72917">16-Bit</tspan></text><text x="37.022289" y="165.45923" fill="#ffffff" font-family="'Noto Mono'" font-size="3.9688px" stroke="#ffffff" stroke-width=".26458" text-align="center" text-anchor="middle" xml:space="preserve"><tspan x="37.022289" y="165.45923" fill="#ffffff" stroke="#ffffff" stroke-width=".26458">USART</tspan></text></g><g fill="none" stroke="#ce5fb3" stroke-linecap="round" stroke-linejoin="round" stroke-width=".52917"><path d="m50.8 213.25-1.0583 1.0583 1.0583 1.0583"/><path d="m54.504 194.73 1.0583 1.0583-1.0583 1.0583"/><path d="m54.504 202.67 1.0583 1.0583-1.0583 1.0583"/><path d="m49.742 185.21h2.1167a0.52917 0.52917 45 0 1 0.52917 0.52917v9.525a0.52917 0.52917 45 0 0 0.52917 0.52917h2.6458"/><path d="m55.563 203.73h-2.6458a0.52917 0.52917 135 0 0-0.52917 0.52917l-1e-6 9.525a0.52917 0.52917 135 0 1-0.52917 0.52917h-1.5875"/></g><g fill-rule="evenodd" stroke-linecap="round" stroke-linejoin="round" stroke-width=".52917"><path d="m87.312 182.83 2.1167-1e-5v2.1167l-2.1167 1e-5 -1.0583-1.0583z" fill="#93539a" stroke="#93539a"/><path d="m30.163 174.63 1e-5 -2.1167h-2.1167l-1e-5 2.1167 1.0583 1.0583z" fill="#49cee2" stroke="#49cee2"/><path d="m43.921 171.98-1e-5 2.1167h2.1167l1e-5 -2.1167-1.0583-1.0583z" fill="#b3bb47" stroke="#b3bb47"/><path d="m43.921 206.38-1e-5 2.1167h2.1167l1e-5 -2.1167-1.0583-1.0583z" fill="#da4661" stroke="#da4661"/><path d="m30.163 209.02 1e-5 -2.1167h-2.1167l-1e-5 2.1167 1.0583 1.0583z" fill="#49cee2" stroke="#49cee2"/><path d="m43.921 240.77-1e-5 2.1167h2.1167l1e-5 -2.1167-1.0583-1.0583z" fill="#e0813b" stroke="#e0813b"/><path d="m30.163 243.42 1e-5 -2.1167h-2.1167l-1e-5 2.1167 1.0583 1.0583z" fill="#49cee2" stroke="#49cee2"/></g><g fill="#ffffff" fill-rule="evenodd" font-family="'Noto Mono'" stroke="#ffffff" stroke-linecap="round" stroke-linejoin="round" text-anchor="middle"><g font-size="1.3229px" stroke-width=".052917"><text x="88.177994" y="184.35794" text-align="center" xml:space="preserve"><tspan x="88.177994" y="184.35794" fill="#ffffff" font-size="1.3229px" stroke="#ffffff" stroke-width=".052917">BUS</tspan></text><text transform="rotate(90)" x="242.69466" y="-28.631649" text-align="center" xml:space="preserve"><tspan x="242.69466" y="-28.631649" fill="#ffffff" font-size="1.3229px" stroke="#ffffff" stroke-width=".052917">BUS</tspan></text><text transform="rotate(90)" x="208.29883" y="-28.631649" text-align="center" xml:space="preserve"><tspan x="208.29883" y="-28.631649" fill="#ffffff" font-size="1.3229px" stroke="#ffffff" stroke-width=".052917">BUS</tspan></text><text transform="rotate(90)" x="173.903" y="-28.631649" text-align="center" xml:space="preserve"><tspan x="173.903" y="-28.631649" fill="#ffffff" font-size="1.3229px" stroke="#ffffff" stroke-width=".052917">BUS</tspan></text><text transform="rotate(-90)" x="-172.70117" y="45.451683" text-align="center" xml:space="preserve"><tspan x="-172.70117" y="45.451683" fill="#ffffff" font-size="1.3229px" stroke="#ffffff" stroke-width=".052917">BUS</tspan></text><text transform="rotate(-90)" x="-207.09702" y="45.451683" text-align="center" xml:space="preserve"><tspan x="-207.09702" y="45.451683" fill="#ffffff" font-size="1.3229px" stroke="#ffffff" stroke-width=".052917">BUS</tspan></text><text transform="rotate(-90)" x="-241.49284" y="45.451683" text-align="center" xml:space="preserve"><tspan x="-241.49284" y="45.451683" fill="#ffffff" font-size="1.3229px" stroke="#ffffff" stroke-width=".052917">BUS</tspan></text></g><text x="36.960278" y="216.91489" font-size="3.9688px" stroke-width=".26458" text-align="center" style="line-height:0" xml:space="preserve"><tspan x="36.960278" y="216.91489" style="line-height:3.70417px">Port B</tspan><tspan x="36.960278" y="219.81429" font-size="2.1167px" style="line-height:3.175px">0 🠖 7</tspan></text><text x="36.918613" y="251.33105" font-size="3.9688px" stroke-width=".26458" text-align="center" style="line-height:0" xml:space="preserve"><tspan x="36.918613" y="251.33105" style="line-height:3.70417px">Port C</tspan><tspan x="36.918613" y="254.23045" font-size="2.1167px" style="line-height:3.175px">0 🠖 6</tspan></text></g><g transform="translate(-15.875 7.9375)" fill-rule="evenodd" stroke-linecap="round" stroke-linejoin="round"><path d="m78.317 240.77-1e-5 2.1167h2.1167l1e-5 -2.1167-1.0583-1.0583z" fill="#5077bb" stroke="#5077bb" stroke-width=".52917"/><text transform="rotate(-90)" x="-241.49284" y="79.847519" fill="#ffffff" font-family="'Noto Mono'" font-size="1.3229px" stroke="#ffffff" stroke-width=".052917" text-align="center" text-anchor="middle" xml:space="preserve"><tspan x="-241.49284" y="79.847519" fill="#ffffff" font-size="1.3229px" stroke="#ffffff" stroke-width=".052917">BUS</tspan></text></g><g transform="translate(-7.9375 7.9375)" stroke-linecap="round" stroke-linejoin="round"><g fill-rule="evenodd" stroke-width=".26458"><rect x="60.854" y="227.54" width="21.167" height="10.583" rx="1.3229" fill="#5077bb" stroke="#5077bb"/><text x="71.559593" y="234.24992" fill="#ffffff" font-family="'Noto Mono'" font-size="3.9688px" stroke="#ffffff" text-align="center" text-anchor="middle" xml:space="preserve"><tspan x="71.559593" y="234.24992" fill="#ffffff" stroke="#ffffff" stroke-width=".26458">CPU</tspan></text></g><g fill-rule="evenodd" stroke-width=".26458"><rect x="89.958" y="234.16" width="21.167" height="10.583" rx="1.3229" fill="#ddb362" stroke="#ddb362"/><text x="100.66376" y="240.8645" fill="#ffffff" font-family="'Noto Mono'" font-size="3.9688px" stroke="#ffffff" text-align="center" text-anchor="middle" xml:space="preserve"><tspan x="100.66376" y="240.8645" fill="#ffffff" stroke="#ffffff" stroke-width=".26458">SRAM</tspan></text></g><g fill-rule="evenodd" stroke-width=".26458"><rect x="89.958" y="220.93" width="21.167" height="10.583" rx="1.3229" fill="#d5c046" stroke="#d5c046"/><text x="100.66376" y="227.63535" fill="#ffffff" font-family="'Noto Mono'" font-size="3.9688px" stroke="#ffffff" text-align="center" text-anchor="middle" xml:space="preserve"><tspan x="100.66376" y="227.63535" fill="#ffffff" stroke="#ffffff" stroke-width=".26458">Flash</tspan></text></g><g fill="none" stroke="#d5c046" stroke-width=".52917"><path d="m87.313 225.16 1.0583 1.0583-1.0583 1.0583"/><path d="m84.667 229.13-1.0583 1.0583 1.0583 1.0583"/><path d="m88.371 226.22h-1.8521a0.52917 0.52917 135 0 0-0.52917 0.52917v2.9104a0.52917 0.52917 135 0 1-0.52917 0.52917h-1.8521"/></g><g fill="none" stroke="#ddb362" stroke-width=".52917"><path d="m87.313 238.39 1.0583 1.0583-1.0583 1.0583"/><path d="m84.667 234.42-1.0583 1.0583 1.0583 1.0583"/><path d="m83.608 235.48h1.8521a0.52917 0.52917 45 0 1 0.52917 0.52917v2.9104a0.52917 0.52917 45 0 0 0.52917 0.52917h1.8521"/></g></g><g fill-rule="evenodd" stroke-linecap="round" stroke-linejoin="round"><path d="m-10.848 160.34 2.1167-1e-5v2.1167l-2.1167 1e-5 -1.0583-1.0583z" fill="#e5db3e" stroke="#e5db3e" stroke-width=".52917"/><text x="-9.9824228" y="161.86836" fill="#ffffff" font-family="'Noto Mono'" font-size="1.3229px" stroke="#ffffff" stroke-width=".052917" text-align="center" text-anchor="middle" xml:space="preserve"><tspan x="-9.9824228" y="161.86836" fill="#ffffff" font-size="1.3229px" stroke="#ffffff" stroke-width=".052917">BUS</tspan></text><path d="m-15.61 207.7 1.3229-1e-5 0.52917 0.52918v1.0583l-0.52917 0.52916-2.6458 1e-5 -0.52917-0.52917v-1.0583l0.52916-0.52917z" fill="#c12b2a" stroke="#c12b2a" stroke-width=".52917"/><text x="-15.605259" y="209.22874" fill="#ffffff" font-family="'Noto Mono'" font-size="1.3229px" stroke="#ffffff" stroke-width=".052917" text-align="center" text-anchor="middle" xml:space="preserve"><tspan x="-15.605259" y="209.22874" fill="#ffffff" font-size="1.3229px" stroke="#ffffff" stroke-width=".052917">VCC</tspan></text></g><g transform="rotate(90 -23.548 208.49)" fill-rule="evenodd" stroke-linecap="round" stroke-linejoin="round"><path d="m-24.342 208.23-1.8e-5 -1.3229 0.52918-0.52917h1.0583l0.52915 0.52917 1.5e-5 2.6458-0.52917 0.52917h-1.0583l-0.52917-0.52917z" fill="#424242" stroke="#424242" stroke-width=".52917"/><text transform="rotate(-90)" x="-208.23839" y="-22.810825" fill="#ffffff" font-family="'Noto Mono'" font-size="1.3229px" stroke="#ffffff" stroke-width=".052917" text-align="center" text-anchor="middle" xml:space="preserve"><tspan x="-208.23839" y="-22.810825" fill="#ffffff" font-size="1.3229px" stroke="#ffffff" stroke-width=".052917">GND</tspan></text></g><path d="m24.871 254h-69.321a0.52917 0.52917 45 0 1-0.52917-0.52917l-1e-6 -88.9a0.52917 0.52917 135 0 1 0.52917-0.52917h3.175" fill="none" stroke="#e5db3e" stroke-linecap="round" stroke-linejoin="round" stroke-width=".52917"/><g fill="#ffffff" fill-rule="evenodd" font-family="'Noto Mono'" font-size="3.175px" stroke="#ffffff" stroke-linecap="round" stroke-linejoin="round" stroke-width=".26458" text-anchor="middle"><text x="5.5369701" y="211.91145" text-align="center" style="line-height:3.70417px" xml:space="preserve"><tspan x="5.5369701" y="211.91145">Clock</tspan><tspan x="5.5369701" y="215.61562">+</tspan><tspan x="5.5369701" y="219.31979">Oscillator</tspan></text><text x="-25.203806" y="218.0692" text-align="center" style="line-height:3.70417px" xml:space="preserve"><tspan x="-25.203806" y="218.0692" fill="#ffffff" font-size="3.175px" stroke="#ffffff" stroke-width=".26458">PSU + Reset</tspan></text><text x="5.4359698" y="196.2317" text-align="center" style="line-height:3.96875px" xml:space="preserve"><tspan x="5.4359698" y="196.2317">Watchdog</tspan><tspan x="5.4359698" y="200.20045">Oscillator</tspan></text></g><rect x="-39.696" y="190.49" width="23.665" height="13.051" rx="1.4791" fill="#9480d9" fill-rule="evenodd" stroke="#9480d9" stroke-linecap="round" stroke-linejoin="round" stroke-width=".31067"/><text x="-27.784763" y="196.22337" fill="#ffffff" fill-rule="evenodd" font-family="'Noto Mono'" font-size="3.175px" stroke="#ffffff" stroke-linecap="round" stroke-linejoin="round" stroke-width=".26458" text-align="center" text-anchor="middle" style="line-height:3.96875px" xml:space="preserve"><tspan x="-27.784763" y="196.22337">Watchdog</tspan><tspan x="-27.784763" y="200.19212">Timer</tspan></text><g fill="none" stroke-linecap="round" stroke-linejoin="round" stroke-width=".52917"><path d="m20.108 197.11h3.175a0.52917 0.52917 45 0 1 0.52917 0.52917v13.494a0.52917 0.52917 135 0 1-0.52917 0.52917h-3.175" stroke="#9480d9"/><path d="m24.871 251.35h-61.383a0.52917 0.52917 45 0 1-0.52917-0.52917v-26.988" stroke="#cb5d5c"/><path d="m7.9375 239.71v8.4667a0.52917 0.52917 45 0 0 0.52917 0.52917h16.404" stroke="#5ccb83"/></g></g></svg>
